<svg width="300" height="300" viewBox="0 0 300 300" fill="none" xmlns="http://www.w3.org/2000/svg">
<path d="M123.75 299.167C118.75 299.167 115 295 115 290.417V278.75C115 273.75 119.167 270 123.75 270C128.75 270 132.5 274.167 132.5 278.75V290.417C132.5 295 128.333 299.167 123.75 299.167Z" fill="#CECECE"/>
<path d="M146.25 299.167C141.25 299.167 137.5 295 137.5 290.417V278.75C137.5 273.75 141.667 270 146.25 270C150.833 270 155 274.167 155 278.75V290.417C155.417 295 151.25 299.167 146.25 299.167Z" fill="#CECECE"/>
<path d="M169.167 299.167C164.167 299.167 160.417 295 160.417 290.417V278.75C160.417 273.75 164.583 270 169.167 270C173.75 270 177.917 274.167 177.917 278.75V290.417C177.917 295 173.75 299.167 169.167 299.167Z" fill="#CECECE"/>
<path d="M191.667 299.167C186.667 299.167 182.917 295 182.917 290.417V278.75C182.917 273.75 187.083 270 191.667 270C196.25 270 200.417 274.167 200.417 278.75V290.417C200.833 295 196.667 299.167 191.667 299.167Z" fill="#CECECE"/>
<path d="M272.917 175.417L279.167 123.75C279.167 55.4167 223.75 0 155.417 0C87.0833 0 31.6666 55.4167 31.6666 123.75L37.5 175.417C32.9166 182.917 30.4166 192.083 30.4166 201.667C30.8333 230.417 54.1666 254.167 83.3333 254.167C88.3333 254.167 92.9166 253.333 97.5 252.083V261.25C97.5 271.25 105.417 279.167 115.417 279.167H197.917C207.917 279.167 215.833 271.25 215.833 261.25V252.5C219.583 253.333 223.333 253.75 227.5 253.75C256.667 253.75 280 230 280 201.25C280 192.083 277.5 182.917 272.917 175.417Z" fill="#E5E4DF"/>
<path d="M106.667 156.25C105.417 145.833 96.6667 137.5 85.8333 137.5C75 137.5 66.25 145.833 65.4167 156.667H65V185.833C65 197.5 74.1667 206.667 85.8333 206.667C97.5 206.667 106.667 197.5 106.667 185.833V156.25Z" fill="#2B3B47"/>
<path d="M242.917 156.25C241.667 145.833 232.917 137.5 222.083 137.5C211.25 137.5 202.5 145.833 201.667 156.667H201.25V185.833C201.25 197.5 210.417 206.667 222.083 206.667C233.75 206.667 242.917 197.5 242.917 185.833V156.25Z" fill="#2B3B47"/>
<path d="M156.25 204.167H156.667C157.083 204.167 157.5 204.167 158.333 204.583C159.583 205 161.25 205.417 162.5 206.25C165.833 207.917 168.75 210.833 170.417 214.583C172.083 217.917 172.917 222.083 172.5 225.833C172.083 227.5 171.667 229.167 171.25 230.417C171.25 230.833 170.833 231.667 170.833 231.667C170.833 232.083 170.417 232.083 170.417 232.083C169.583 233.75 167.5 235 165.833 234.583H165.417C165 234.583 164.583 234.583 163.75 234.167C162.5 233.75 160.833 233.333 159.167 232.5C155.833 230.833 152.917 227.917 151.25 224.167C150 220.833 149.167 216.667 150 213.333C150.417 211.667 150.833 210 151.25 208.75C151.25 208.333 151.667 207.5 151.667 207.5C151.667 207.083 152.083 207.083 152.083 207.083C152.5 205 154.583 203.75 156.25 204.167Z" fill="#2B3B47"/>
<path d="M158.75 206.667L159.167 207.083C159.167 207.5 159.583 207.917 159.583 208.333C160 209.583 160.417 211.25 160.833 212.917C161.25 216.667 160.833 220.833 158.75 224.167C157.083 227.917 153.75 230.833 150.833 232.5C149.167 233.333 147.5 233.75 146.25 234.167C145.833 234.167 145 234.583 144.583 234.583H144.167C142.083 235 140.417 234.167 139.583 232.083L139.167 231.667C139.167 231.25 138.75 230.833 138.75 230.417C138.333 229.167 137.917 227.5 137.5 225.833C137.083 222.083 137.5 217.917 139.583 214.583C141.25 211.25 144.583 207.917 147.5 206.25C149.167 205.417 150.833 204.583 151.667 204.583C152.083 204.583 152.917 204.167 153.333 204.167H153.75C156.25 203.75 157.917 205 158.75 206.667Z" fill="#2B3B47"/>
</svg>
