<svg width="300" height="300" viewBox="0 0 300 300" fill="none" xmlns="http://www.w3.org/2000/svg">
<g clip-path="url(#clip0_507_30)">
<path d="M150 121.966L121.958 150L50.6085 78.6509H23.3838C16.9246 78.6509 11.0765 76.0325 6.84747 71.8034C2.61839 67.5661 0 61.7263 0 55.2671C0 42.3568 10.4653 31.8833 23.3838 31.8833H31.8833V23.3838C31.8833 16.9246 34.5017 11.0848 38.7307 6.84747C42.9598 2.61839 48.8078 0 55.2671 0C68.1773 0 78.6426 10.4736 78.6426 23.3838V50.6085L150 121.966Z" fill="#E6E6E6"/>
<path d="M293.153 228.205C297.382 232.434 300 238.274 300 244.733C300 257.651 289.526 268.117 276.616 268.117H268.117V276.616C268.117 283.075 265.498 288.923 261.269 293.153C257.032 297.382 251.192 300 244.733 300C231.823 300 221.349 289.535 221.349 276.616V268.117V249.392L150 178.042L178.034 150L249.392 221.357H268.117H276.616C283.075 221.357 288.915 223.976 293.153 228.205Z" fill="#E6E6E6"/>
<path d="M293.153 38.7307C297.382 42.9681 300 48.8078 300 55.2671C300 68.1773 289.526 78.6509 276.616 78.6509H268.117H249.383L178.034 150L150 178.042L78.6426 249.392V268.117V276.616C78.6426 283.075 76.0242 288.923 71.7951 293.153C67.5661 297.382 61.7181 300 55.2588 300C42.3486 300 31.8833 289.535 31.8833 276.616V268.117H23.3755C16.9163 268.117 11.0765 265.498 6.84747 261.269C2.61839 257.04 0 251.192 0 244.733C0 231.823 10.4653 221.357 23.3755 221.357H31.8833H50.6085L121.958 150L150 121.966L221.349 50.6085V31.8833V23.3838C221.349 16.9246 223.967 11.0848 228.197 6.84747C232.434 2.61839 238.282 0 244.733 0C257.643 0 268.117 10.4736 268.117 23.3838V31.8833H276.616C283.067 31.8833 288.915 34.5017 293.153 38.7307Z" fill="#E6E6E6"/>
<path d="M142.837 114.804L114.795 142.838L121.956 150L149.997 121.966L142.837 114.804Z" fill="#CCCCCC"/>
<path d="M178.032 149.998L149.99 178.032L157.15 185.194L185.192 157.161L178.032 149.998Z" fill="#CCCCCC"/>
</g>
<defs>
<clipPath id="clip0_507_30">
<rect width="300" height="300" fill="white"/>
</clipPath>
</defs>
</svg>
