<svg width="319" height="319" viewBox="0 0 319 319" fill="none" xmlns="http://www.w3.org/2000/svg">
<path fill-rule="evenodd" clip-rule="evenodd" d="M292.417 255.277V159.5C292.417 86.0921 232.907 26.5833 159.5 26.5833C86.0922 26.5833 26.5834 86.0921 26.5834 159.5V255.277C26.5834 272.341 44.5401 283.438 59.8019 275.807C72.1374 269.64 86.8318 270.555 98.3071 278.205C111.216 286.81 128.034 286.81 140.944 278.205L145.63 275.08C154.029 269.481 164.971 269.481 173.37 275.08L178.057 278.205C190.967 286.81 207.783 286.81 220.694 278.205C232.168 270.555 246.862 269.64 259.198 275.807C274.46 283.438 292.417 272.341 292.417 255.277ZM212.667 139.562C212.667 150.573 206.716 159.5 199.375 159.5C192.034 159.5 186.083 150.573 186.083 139.562C186.083 128.551 192.034 119.625 199.375 119.625C206.716 119.625 212.667 128.551 212.667 139.562ZM119.625 159.5C126.966 159.5 132.917 150.573 132.917 139.562C132.917 128.551 126.966 119.625 119.625 119.625C112.284 119.625 106.333 128.551 106.333 139.562C106.333 150.573 112.284 159.5 119.625 159.5Z" fill="#E5E4DF"/>
</svg>
