<svg width="419" height="419" viewBox="0 0 419 419" fill="none" xmlns="http://www.w3.org/2000/svg">
  <path opacity="1"
    d="M331.309 258.216C378.397 211.127 378.397 134.781 331.309 87.6916C284.22 40.6028 207.873 40.6028 160.784 87.6916C129.517 118.958 119.012 163.125 129.267 203.06C130.921 209.5 129.452 216.466 124.75 221.169L59.943 285.974C54.3928 291.526 51.6664 299.297 52.5332 307.099L56.5847 343.562C57.0166 347.45 58.7588 351.075 61.5246 353.84L65.1596 357.475C67.9255 360.24 71.5502 361.983 75.4376 362.416L111.901 366.466C119.702 367.334 127.474 364.607 133.025 359.057L145.421 346.661L163.938 328.143L197.836 294.244C202.539 289.543 209.5 288.078 215.94 289.733C255.875 299.988 300.041 289.482 331.309 258.216Z"
    fill="#FFFFFF" />
  <path
    d="M249.628 154.4H238.478C233.747 154.4 230.337 153.201 228.248 150.803C226.159 148.344 225.115 145.116 225.115 141.12C225.115 132.267 231.719 127.84 244.928 127.84C257.339 127.84 266.677 129.684 272.944 133.373L267.599 137.431C263.298 135.464 255.741 134.48 244.928 134.48C239.645 134.48 236.081 135.064 234.238 136.232C232.457 137.4 231.566 139.03 231.566 141.12C231.566 143.21 232.057 144.84 233.04 146.008C234.023 147.176 235.836 147.76 238.478 147.76H249.905C258.199 147.76 265.663 149.174 272.299 152.002C278.995 154.83 284.494 158.704 288.794 163.622C293.095 168.479 296.382 174.105 298.655 180.499C300.928 186.831 302.065 193.625 302.065 200.88C302.065 206.782 301.235 212.377 299.577 217.664C297.918 222.952 295.399 227.809 292.02 232.236C288.702 236.662 284.678 240.505 279.947 243.763C275.278 246.96 269.687 249.45 263.175 251.233C256.724 253.078 249.72 254 242.164 254C230.306 254 219.186 252.186 208.804 248.559C198.482 244.993 189.881 239.982 183 233.527L188.345 229.561C194.612 235.217 202.445 239.613 211.845 242.749C221.306 245.823 231.412 247.36 242.164 247.36C250.581 247.36 258.168 246.161 264.926 243.763C271.746 241.304 277.336 237.953 281.698 233.711C286.122 229.469 289.501 224.55 291.835 218.956C294.232 213.361 295.43 207.336 295.43 200.88C295.43 192.334 293.709 184.618 290.269 177.732C286.828 170.785 281.576 165.159 274.51 160.856C267.506 156.552 259.212 154.4 249.628 154.4ZM238.478 161.04H248.983C261.455 161.04 271.193 164.852 278.196 172.476C285.262 180.099 288.794 189.567 288.794 200.88C288.794 212.377 284.709 221.907 276.538 229.469C268.367 236.97 256.909 240.72 242.164 240.72C232.334 240.72 223.149 239.367 214.609 236.662C206.07 233.957 198.974 230.145 193.321 225.227L198.482 221.077C203.52 225.196 209.848 228.393 217.466 230.668C225.146 232.943 233.378 234.08 242.164 234.08C255.127 234.08 265.018 230.975 271.838 224.766C278.719 218.556 282.159 210.594 282.159 200.88C282.159 191.289 279.272 183.358 273.497 177.087C267.783 170.816 259.581 167.68 248.891 167.68H238.478C229.508 167.68 222.78 165.221 218.296 160.302C213.811 155.384 211.568 148.99 211.568 141.12C211.568 133.25 214.333 126.856 219.862 121.938C225.453 117.019 233.808 114.56 244.928 114.56C252.731 114.56 259.98 115.482 266.677 117.327C273.374 119.11 278.903 121.692 283.265 125.073L278.012 129.131C270.333 123.844 259.305 121.2 244.928 121.2C235.651 121.2 228.863 123.044 224.562 126.733C220.323 130.361 218.203 135.156 218.203 141.12C218.203 147.145 219.77 151.971 222.903 155.599C226.098 159.226 231.289 161.04 238.478 161.04ZM238.478 174.32H248.615C257.584 174.32 264.312 176.81 268.797 181.79C273.282 186.77 275.524 193.133 275.524 200.88C275.524 208.75 272.729 215.144 267.138 220.062C261.609 224.981 253.284 227.44 242.164 227.44C234.361 227.44 227.081 226.549 220.323 224.766C213.626 222.921 208.097 220.308 203.735 216.927L208.988 212.869C216.667 218.156 227.726 220.8 242.164 220.8C251.441 220.8 258.199 218.986 262.438 215.359C266.739 211.67 268.889 206.844 268.889 200.88C268.889 194.916 267.291 190.121 264.097 186.493C260.902 182.804 255.711 180.96 248.522 180.96H238.478C225.883 180.96 216.022 177.21 208.896 169.709C201.83 162.147 198.298 152.617 198.298 141.12C198.298 129.623 202.383 120.124 210.554 112.623C218.726 105.061 230.184 101.28 244.928 101.28C254.758 101.28 263.912 102.633 272.391 105.338C280.93 108.043 288.026 111.855 293.679 116.773L288.518 120.923C283.48 116.804 277.152 113.607 269.534 111.332C261.916 109.057 253.714 107.92 244.928 107.92C231.965 107.92 222.043 111.025 215.162 117.234C208.343 123.444 204.933 131.406 204.933 141.12C204.933 150.773 207.821 158.734 213.596 165.006C219.371 171.215 227.665 174.32 238.478 174.32ZM238.478 187.6H248.615C253.345 187.6 256.755 188.83 258.844 191.289C260.933 193.748 261.977 196.945 261.977 200.88C261.977 209.733 255.373 214.16 242.164 214.16C229.692 214.16 220.323 212.316 214.056 208.627L219.401 204.569C223.702 206.536 231.289 207.52 242.164 207.52C247.447 207.52 250.98 206.936 252.762 205.768C254.605 204.6 255.526 202.97 255.526 200.88C255.526 198.851 255.004 197.253 253.96 196.084C252.977 194.855 251.134 194.24 248.43 194.24H238.478C229.999 194.24 222.32 192.857 215.439 190.09C208.619 187.323 202.998 183.511 198.574 178.654C194.212 173.797 190.864 168.172 188.529 161.778C186.195 155.384 185.027 148.498 185.027 141.12C185.027 135.218 185.857 129.623 187.516 124.336C189.174 119.048 191.663 114.191 194.98 109.764C198.359 105.338 202.383 101.526 207.053 98.3289C211.783 95.0704 217.374 92.5496 223.825 90.7667C230.337 88.9222 237.372 88 244.928 88C256.786 88 267.875 89.8137 278.196 93.4411C288.518 97.007 297.119 102.018 304 108.473L298.655 112.439C292.388 106.783 284.555 102.417 275.155 99.3433C265.756 96.2078 255.68 94.64 244.928 94.64C236.512 94.64 228.893 95.8696 222.074 98.3289C215.316 100.727 209.725 104.047 205.302 108.289C200.94 112.531 197.561 117.45 195.165 123.044C192.83 128.639 191.663 134.664 191.663 141.12C191.663 149.789 193.414 157.597 196.915 164.544C200.417 171.492 205.762 177.087 212.95 181.329C220.139 185.51 228.648 187.6 238.478 187.6Z"
    fill="#1A365D" />
</svg>